<?xml version="1.0" encoding="utf-8"?>
<!-- Generator: Adobe Illustrator 21.1.0, SVG Export Plug-In . SVG Version: 6.00 Build 0)  -->
<svg version="1.1" id="Layer_1" xmlns="http://www.w3.org/2000/svg" xmlns:xlink="http://www.w3.org/1999/xlink" x="0px" y="0px"
	 viewBox="0 0 645.6 220.2" style="enable-background:new 0 0 645.6 220.2;" xml:space="preserve">
<style type="text/css">
	.st0{fill:#FFFFFF;stroke:#FFFFFF;stroke-miterlimit:10;}
</style>
<g>
	<path class="st0" d="M16.9,126c0.2,1.7,0.6,3,1.3,4c0.6,1,1.5,1.6,2.7,1.9c1.1,0.3,2.6,0.4,4.5,0.4v2.2H0v-2.2
		c1.8,0,3.3-0.1,4.5-0.4c1.1-0.3,2-0.9,2.7-1.9c0.6-1,1.1-2.3,1.3-4c0.2-1.7,0.3-3.9,0.3-6.6v-17.7c0-2.8-0.1-5-0.3-6.7
		c-0.2-1.7-0.6-2.9-1.3-3.9c-0.6-0.9-1.5-1.5-2.7-1.8C3.3,89,1.8,88.8,0,88.8v-2.2h22.9c5.8,0,10.1,1.3,13.2,3.9
		c3,2.6,4.5,5.9,4.5,9.8c0,3.8-1.5,7.1-4.5,9.7c-3,2.6-7.4,3.9-13.2,3.9h-6.3v5.4C16.6,122.1,16.7,124.3,16.9,126z M32,100.3
		c0-2.7-0.7-4.9-2.2-6.9c-1.5-1.9-3.8-2.9-6.9-2.9h-6.3v19.3h6.3c3.1,0,5.4-0.9,6.9-2.8C31.2,105.1,32,102.9,32,100.3z"/>
	<path class="st0" d="M88.9,110.5v-4.7c0-2.5-0.1-4.4-0.3-5.9c-0.2-1.5-0.6-2.6-1.1-3.4c-0.5-0.8-1.3-1.3-2.3-1.6
		c-1-0.3-2.3-0.4-3.9-0.4v-1.9h22.2v1.9c-1.6,0-2.9,0.1-3.9,0.4c-1,0.3-1.8,0.8-2.3,1.6c-0.5,0.8-0.9,1.9-1.1,3.4
		c-0.2,1.5-0.3,3.4-0.3,5.9v15.5c0,2.4,0.1,4.3,0.3,5.8c0.2,1.5,0.6,2.6,1.1,3.5c0.5,0.8,1.3,1.4,2.3,1.6c1,0.3,2.3,0.4,3.9,0.4v1.9
		H81.2v-1.9c1.6,0,2.9-0.1,3.9-0.4c1-0.3,1.8-0.8,2.3-1.6c0.5-0.8,0.9-2,1.1-3.5c0.2-1.5,0.3-3.4,0.3-5.8v-7.2h-22v7.2
		c0,2.4,0.1,4.3,0.3,5.8c0.2,1.5,0.6,2.6,1.1,3.5c0.5,0.8,1.3,1.4,2.3,1.6c1,0.3,2.3,0.4,3.9,0.4v1.9H52.4v-1.9
		c1.6,0,2.9-0.1,3.9-0.4c1-0.3,1.8-0.8,2.3-1.6c0.5-0.8,0.9-2,1.1-3.5c0.2-1.5,0.3-3.4,0.3-5.8v-15.5c0-2.5-0.1-4.4-0.3-5.9
		c-0.2-1.5-0.6-2.6-1.1-3.4c-0.5-0.8-1.3-1.3-2.3-1.6c-1-0.3-2.3-0.4-3.9-0.4v-1.9h22.2v1.9c-1.6,0-2.9,0.1-3.9,0.4
		c-1,0.3-1.8,0.8-2.3,1.6c-0.5,0.8-0.9,1.9-1.1,3.4c-0.2,1.5-0.3,3.4-0.3,5.9v4.7H88.9z"/>
	<path class="st0" d="M116.9,134.5v-1.9c1.6,0,2.9-0.1,3.9-0.4c1-0.3,1.8-0.8,2.3-1.6c0.5-0.8,0.9-2,1.1-3.5
		c0.2-1.5,0.3-3.4,0.3-5.8v-15.5c0-2.5-0.1-4.4-0.3-5.9c-0.2-1.5-0.6-2.6-1.1-3.4c-0.5-0.8-1.3-1.3-2.3-1.6c-1-0.3-2.3-0.4-3.9-0.4
		v-1.9h22.2v1.9c-1.6,0-2.9,0.1-3.9,0.4c-1,0.3-1.8,0.8-2.3,1.6c-0.5,0.8-0.9,1.9-1.1,3.4c-0.2,1.5-0.3,3.4-0.3,5.9v15.5
		c0,2.4,0.1,4.3,0.3,5.8c0.2,1.5,0.6,2.6,1.1,3.5c0.5,0.8,1.3,1.4,2.3,1.6c1,0.3,2.3,0.4,3.9,0.4v1.9H116.9z"/>
	<path class="st0" d="M174.5,132.3c1.8,0,3.3-0.1,4.5-0.4c1.1-0.3,2-0.9,2.7-1.9c0.6-1,1.1-2.3,1.3-4c0.2-1.7,0.3-3.9,0.3-6.6v-17.7
		c0-2.8-0.1-5-0.3-6.7c-0.2-1.7-0.6-2.9-1.3-3.9c-0.6-0.9-1.5-1.5-2.7-1.8c-1.1-0.3-2.6-0.4-4.5-0.4v-2.2h12.4h11
		c5.2,0,9.2,1.2,11.9,3.5c2.7,2.3,4,5.2,4,8.7c0,1.9-0.4,3.7-1.3,5.3c-0.8,1.6-2,3-3.5,4.2c2.8,1.3,4.9,3,6.4,5.1
		c1.5,2.2,2.2,4.7,2.2,7.5c0,3.9-1.5,7.2-4.5,9.7c-3,2.6-7.4,3.9-13.1,3.9h-13.2h-12.4V132.3z M205.6,99c0-2.2-0.6-4.2-1.9-5.9
		c-1.3-1.7-3.2-2.5-5.8-2.5h-6.7v16.5h6.7c2.6,0,4.5-0.8,5.8-2.4C204.9,103,205.6,101.1,205.6,99z M209.6,120.9
		c0-2.6-0.8-4.8-2.3-6.8s-3.9-2.9-7-2.9h-9.2V122c0,1.8,0.1,3.2,0.2,4.3c0.1,1.1,0.5,2,0.9,2.6c0.5,0.6,1.2,1,2,1.2
		c0.9,0.2,2.1,0.3,3.5,0.3h2.4c3.2,0,5.5-0.9,7-2.8C208.8,125.7,209.6,123.5,209.6,120.9z"/>
	<path class="st0" d="M260.1,130.6c1.4-0.2,2.4-0.6,3.2-1.1c0.8-0.5,1.4-1.1,1.7-1.9c0.4-0.8,0.7-1.7,1-2.9l0.5-1.9h1.9l-0.8,11.7
		h-36.2v-1.9c1.6,0,2.9-0.1,3.9-0.4c1-0.3,1.8-0.8,2.3-1.6c0.5-0.8,0.9-2,1.1-3.5c0.2-1.5,0.3-3.4,0.3-5.8v-15.5
		c0-2.5-0.1-4.4-0.3-5.9c-0.2-1.5-0.6-2.6-1.1-3.4c-0.5-0.8-1.3-1.3-2.3-1.6c-1-0.3-2.3-0.4-3.9-0.4v-1.9h21.4h12.5l0.8,11.6h-2
		l-0.5-1.9c-0.3-1.1-0.6-2-0.9-2.9c-0.4-0.8-0.9-1.5-1.7-1.9c-0.8-0.5-1.8-0.8-3.2-1.1s-3.1-0.3-5.3-0.3H246v14.4h0.6
		c2.5,0,4.4-0.1,5.8-0.3c1.4-0.2,2.4-0.6,3.1-1.1c0.7-0.5,1.1-1.3,1.3-2.3c0.2-1,0.3-2.3,0.3-3.9h1.9v18.9H257
		c0-1.6-0.1-2.9-0.3-3.9c-0.2-1-0.6-1.8-1.3-2.3c-0.7-0.5-1.7-0.9-3.1-1.1c-1.4-0.2-3.3-0.3-5.8-0.3H246v5.6c0,2.4,0.1,4.3,0.3,5.8
		c0.2,1.5,0.6,2.6,1.1,3.4c0.5,0.8,1.3,1.3,2.3,1.6c1,0.3,2.3,0.4,3.9,0.4h1.2C257,130.9,258.8,130.8,260.1,130.6z"/>
	<path class="st0" d="M292,96.4c-2.2,0-4,0.1-5.3,0.3c-1.3,0.2-2.3,0.6-3.1,1.1c-0.7,0.5-1.2,1.1-1.5,1.9c-0.3,0.8-0.6,1.7-1,2.9
		l-0.5,1.9h-1.9l0.7-11.9h43.1l0.7,11.9h-1.9l-0.5-1.9c-0.3-1.2-0.6-2.1-0.9-2.9c-0.4-0.8-0.9-1.4-1.6-1.9c-0.7-0.5-1.7-0.8-3-1.1
		c-1.3-0.2-3.1-0.3-5.3-0.3h-5.5v24.9c0,2.4,0.1,4.3,0.3,5.8c0.2,1.5,0.6,2.6,1.2,3.5c0.6,0.8,1.4,1.4,2.4,1.6
		c1,0.3,2.3,0.4,3.9,0.4v1.9h-22.4v-1.9c1.6,0,2.9-0.1,3.9-0.4c1-0.3,1.8-0.8,2.4-1.6c0.6-0.8,1-2,1.2-3.5c0.2-1.5,0.3-3.4,0.3-5.8
		V96.4H292z"/>
	<path class="st0" d="M338.7,125.1c-0.6,1.4-1,2.6-1.3,3.5c-0.3,0.9-0.2,1.7,0.1,2.3c0.3,0.6,1,1,2,1.2c1,0.2,2.5,0.3,4.4,0.3v2
		h-18.3v-2c1.5,0,2.7-0.1,3.6-0.3c0.9-0.2,1.7-0.6,2.4-1.2c0.7-0.6,1.3-1.5,1.9-2.6c0.6-1.1,1.3-2.5,2-4.4l14.2-33.1h1.4l14.2,33.1
		c0.8,1.8,1.5,3.3,2.1,4.4c0.6,1.1,1.3,2,1.9,2.6c0.7,0.6,1.4,1,2.3,1.2c0.8,0.2,1.9,0.3,3.2,0.3v2h-21.7v-2c3.5,0,5.5-0.5,6.1-1.5
		c0.6-1,0.3-3-0.9-5.8l-1.9-4.5h-15.9L338.7,125.1z M348.5,102.3l-6.4,14.8h12.8L348.5,102.3z"/>
	<path class="st0" d="M414.8,113.7v5.6c0,2.7,0.1,4.9,0.3,6.6c0.2,1.7,0.6,3,1.3,4c0.6,1,1.5,1.6,2.7,1.9c1.1,0.3,2.6,0.4,4.5,0.4
		v2.2h-25.3v-2.2c1.8,0,3.3-0.1,4.5-0.4c1.1-0.3,2-0.9,2.7-1.9c0.6-1,1-2.3,1.3-4c0.2-1.7,0.3-3.9,0.3-6.6v-17.7
		c0-2.8-0.1-5-0.3-6.7c-0.2-1.7-0.6-2.9-1.3-3.9c-0.6-0.9-1.5-1.5-2.7-1.8c-1.1-0.3-2.6-0.4-4.5-0.4v-2.2h25.3v2.2
		c-1.8,0-3.3,0.1-4.5,0.4c-1.1,0.3-2,0.9-2.7,1.8c-0.6,0.9-1.1,2.2-1.3,3.9c-0.2,1.7-0.3,3.9-0.3,6.7v7.1l13.5-11.5
		c2-1.7,3.5-3.1,4.4-4.2c1-1.1,1.5-2,1.5-2.6c0-0.6-0.3-1.1-1.1-1.3c-0.8-0.2-1.9-0.3-3.5-0.3v-2.2h20.8v2.2c-1.4,0-2.7,0.1-3.9,0.4
		c-1.2,0.3-2.4,0.8-3.8,1.5c-1.3,0.7-2.8,1.7-4.5,2.9c-1.7,1.3-3.6,2.9-5.9,4.9l-10.3,8.7l16.1,15.5c2.3,2,4.2,3.6,5.8,4.9
		c1.6,1.3,3,2.2,4.1,2.9c1.2,0.7,2.2,1.2,3.2,1.4c0.9,0.3,1.9,0.4,2.8,0.4v2.1l-25.3,0v-2.3c3,0.1,4.7-0.5,5-1.7
		c0.3-1.2-1.3-3.4-4.8-6.7l-11.4-12.5L414.8,113.7z"/>
	<path class="st0" d="M469.7,125.1c-0.6,1.4-1,2.6-1.3,3.5c-0.3,0.9-0.2,1.7,0.1,2.3c0.3,0.6,1,1,2,1.2c1,0.2,2.5,0.3,4.4,0.3v2
		h-16.3v-2c1.5,0,3.4-0.9,4.1-1.5c0.7-0.6,1.3-1.5,1.9-2.6c0.6-1.1,1.3-2.5,2-4.4l14.2-33.1h1.4l14.2,33.1c0.8,1.8,1.5,3.3,2.1,4.4
		c0.6,1.1,1.3,2,1.9,2.6c0.7,0.6,1.4,1,2.3,1.2c0.8,0.2,1.9,0.3,3.2,0.3v2h-21.7v-2c3.5,0,5.5-0.5,6.1-1.5c0.6-1,0.3-3-0.9-5.8
		l-1.9-4.5h-15.9L469.7,125.1z M479.5,102.3l-6.4,14.8h12.8L479.5,102.3z"/>
	<path class="st0" d="M527.7,127c0.2,1.5,0.6,2.6,1.1,3.5c0.5,0.8,1.3,1.4,2.3,1.6c1,0.3,2.3,0.4,3.9,0.4v1.9h-22.2v-1.9
		c1.6,0,2.9-0.1,3.9-0.4c1-0.3,1.8-0.8,2.3-1.6c0.5-0.8,0.9-2,1.1-3.5c0.2-1.5,0.3-3.4,0.3-5.8v-15.5c0-2.5-0.1-4.4-0.3-5.9
		c-0.2-1.5-0.6-2.6-1.1-3.4c-0.5-0.8-1.3-1.3-2.3-1.6c-1-0.3-2.3-0.4-3.9-0.4v-1.9h20c5,0,8.9,1.1,11.5,3.4c2.6,2.3,4,5.1,4,8.6
		c0,3.4-1.3,6.2-4,8.5c-2.6,2.3-6.5,3.4-11.5,3.4h-5.5v4.7C527.4,123.6,527.5,125.6,527.7,127z M540.9,104.6c0-2.3-0.6-4.3-1.9-6
		c-1.3-1.7-3.3-2.5-6-2.5h-5.5v16.8h5.5c2.7,0,4.7-0.8,6-2.5C540.3,108.8,540.9,106.8,540.9,104.6z"/>
	<path class="st0" d="M573.9,127c0.2,1.5,0.6,2.6,1.1,3.5c0.6,0.8,1.3,1.4,2.3,1.6c1,0.3,2.3,0.4,3.9,0.4v1.9h-22.2v-1.9
		c1.6,0,2.9-0.1,3.9-0.4c1-0.3,1.8-0.8,2.3-1.6c0.5-0.8,0.9-2,1.1-3.5c0.2-1.5,0.3-3.4,0.3-5.8v-15.5c0-2.5-0.1-4.4-0.3-5.9
		c-0.2-1.5-0.6-2.6-1.1-3.4c-0.5-0.8-1.3-1.3-2.3-1.6c-1-0.3-2.3-0.4-3.9-0.4v-1.9h20c5,0,8.9,1.1,11.5,3.4c2.6,2.3,4,5.1,4,8.6
		c0,3.4-1.3,6.2-4,8.5c-2.6,2.3-6.5,3.4-11.5,3.4h-5.5v4.7C573.6,123.6,573.7,125.6,573.9,127z M587.1,104.6c0-2.3-0.6-4.3-1.9-6
		c-1.3-1.7-3.3-2.5-6-2.5h-5.5v16.8h5.5c2.7,0,4.7-0.8,6-2.5C586.4,108.8,587.1,106.8,587.1,104.6z"/>
	<path class="st0" d="M609.4,125.1c-0.6,1.4-1,2.6-1.3,3.5c-0.3,0.9-0.2,1.7,0.1,2.3c0.3,0.6,1,1,2,1.2c1,0.2,2.5,0.3,4.4,0.3v2
		h-18.3v-2c1.5,0,2.7-0.1,3.6-0.3c0.9-0.2,1.7-0.6,2.4-1.2c0.7-0.6,1.3-1.5,1.9-2.6c0.6-1.1,1.3-2.5,2-4.4l14.2-33.1h1.4l14.2,33.1
		c0.8,1.8,1.5,3.3,2.1,4.4c0.6,1.1,1.3,2,1.9,2.6c0.7,0.6,1.4,1,2.3,1.2c0.8,0.2,1.9,0.3,3.2,0.3v2h-21.7v-2c3.5,0,5.5-0.5,6.1-1.5
		c0.6-1,0.3-3-0.9-5.8l-1.9-4.5h-15.9L609.4,125.1z M619.3,102.3l-6.4,14.8h12.8L619.3,102.3z"/>
</g>
<g>
	<path class="st0" d="M310,7.2c-2-0.5-6.8-0.6-7.9-0.6c-5.8,0-9,3.1-9,6.9c0,1,0.1,1.6,0.5,2.3c0.3,0.4,0.5,0.4,0.7,0.2
		c0.5-0.6,1.3-0.7,1.7-0.7c1,0,2.2,1,2.2,2.5c0,1-0.9,2.2-2.6,2.2c-1.5,0-4.2-1.1-4.2-6c0-2,0.9-5.5,4.5-7.8
		c2.3-1.5,5.6-2.3,10.6-2.3c2.9,0,6.7,0.4,10,0.9c3.3,0.4,8.7,0.9,9.8,0.9c1.4,0,2.8-0.2,2.8-1.5c0-0.3-0.2-0.8-0.5-1.2
		c-0.3-0.3-0.5-0.9-0.5-1.3c0-0.7,0.5-1.6,1.8-1.6c1.3,0,1.7,1.3,1.7,2.6c0,1.6-0.3,2.2-1,4l-8,18.7l0.3,0.2
		c2.5-3.6,5.9-7.9,10.1-7.9c2.3,0,3.5,1.9,3.5,4.3c0,4.1-1.7,8.5-3.5,11.8c-2,3.8-4.8,6.7-7.6,6.7c-1.5,0-2.6-1.1-2.6-2.2
		c0-1.2,0.8-2.5,1.8-2.5c1,0,1.7,0.8,1.8,1.5c0.1,0.5,0.3,1,0.9,1c1.1,0,2.8-3.3,3.8-5.9c1.1-2.9,2-6.8,2-9.2c0-1.3-0.1-2.8-1.5-2.8
		c-2.7,0-7.2,5.3-8.5,7c-1.2,1.5-2.3,3.5-3.4,5.9l-2.1,5.2c-0.1,0.3-0.4,0.4-0.7,0.4h-2.2c-0.3,0-0.4-0.2-0.4-0.3l11.6-28.8
		c0.3-0.7,0.5-1.2,0.7-1.7c-0.8,0.3-1.8,0.4-2.8,0.4c-1.7,0-8.2-0.5-9.9-0.8l-7.9,25c-1,3.2-0.7,4.4,2.2,4.4h2
		c0.4,0,0.4,0.3,0.4,0.5l-0.2,1c-0.1,0.3-0.2,0.4-0.7,0.4c-0.7,0-2.7-0.2-7.6-0.2c-3.7,0-6.3,0.2-6.9,0.2c-0.4,0-0.5-0.2-0.4-0.5
		l0.2-1c0.1-0.3,0.2-0.4,0.6-0.4h1.4c3,0,4-1.4,5.2-5.1L310,7.2z"/>
	<path class="st0" d="M338.7,34.2c0-4.3,2.8-9.6,6.5-13.3c1.6-1.6,4.4-3.4,6.8-3.4c2,0,2.9,1.5,2.9,2.7c0,2.5-1.9,5.1-4.7,6.6
		c-2.7,1.4-5.5,1.9-7.4,2.1c-0.3,0.6-0.7,2.3-0.7,4.7c0,2.3,1.7,3.2,2.6,3.2c2.5,0,4.7-1.9,5.8-3.6c0.1-0.2,0.3-0.3,0.5,0l0.6,0.5
		c0.3,0.2,0.3,0.3,0.1,0.5c-1.3,1.8-4.3,5.1-8.2,5.1C340.1,39.2,338.7,37.6,338.7,34.2z M343.2,27.5c1.8,0.2,8.4-2,8.4-5.7
		c0-1-0.5-1.9-1.6-1.9C346.7,19.8,343.6,25.6,343.2,27.5z"/>
</g>
<rect x="290.7" y="48" class="st0" width="60.9" height="1.7"/>
<g>
	<path class="st0" d="M254.6,209c0-4.9,3.4-8.5,7.5-8.5c2.9,0,5.1,2.1,5.1,4c0,1.2-0.8,2.5-2.2,2.5c-1,0-2.1-0.9-2.4-2.1
		c-0.3-1.3-1-2.4-2.1-2.4c-1.3,0.1-3.2,2.3-3.2,5.5c0,4.5,4.3,8.9,10.2,8.9c7.9,0,13.3-5.6,13.3-12c0-7.1-2.9-11.2-4.8-15.6
		c-1.5-3.6-2.6-6.6-2.6-9.2c0-5.4,4.3-9.8,9.8-9.8c5.8,0,6.7,3.8,6.6,5.2c0,1-1,2.4-2.6,2.4c-1,0-1.8-1-1.8-1.8c0-0.8,0.3-1.4,0.6-2
		c0.6-1.2-0.6-2.3-2.9-2.3c-3.1,0-5.8,2.7-5.7,6.9c0.1,2.8,1.3,5.6,3,9.2c2.1,4.4,4.7,8.6,4.7,14.1c0,9.4-7.5,16.7-17.8,16.7
		C258.7,218.7,254.6,213.6,254.6,209z"/>
	<path class="st0" d="M289.7,199.1c0-6.4,4.8-15.1,11.6-15.1c3.4,0,5.4,2.5,5.4,5.9c0,5.6-4.4,15.7-11.8,15.7
		C292.2,205.7,289.7,203,289.7,199.1z M304.7,189.2c0-1.6-0.9-2.8-2.5-2.8c-2.1,0-4.8,1.9-7.4,6c-1.7,2.7-2.9,5.8-2.9,8.2
		c0,1.6,1.1,2.6,2.3,2.6C299.5,203.2,304.7,192.6,304.7,189.2z"/>
	<path class="st0" d="M308.8,201c0-6.9,5.6-17,11.5-17c2.4,0,2.9,1.9,2.9,2.8c0,1.2-1.2,2.1-2.1,2.1c-0.7,0-1.1-0.4-1.3-1.1
		c-0.2-0.6-0.8-1.3-1.6-1.3c-1.3,0-2.6,1.2-3.7,3.5c-1.4,2.9-2.2,7.3-2.2,8.9c0,3.7,1.1,4.2,2,4.2c2,0,3.9-2,4.5-2.7
		c0.2-0.2,0.3-0.3,0.5-0.2l0.6,0.5c0.2,0.1,0.3,0.3,0.1,0.6c-0.7,1.1-4.1,4.4-7.3,4.4C310.8,205.7,308.8,204.4,308.8,201z"/>
	<path class="st0" d="M324.8,204.4c0-1.2,0.9-3.5,3-9.2l1.5-4c0.5-1.4,0.9-2.4,0.9-3c0-0.5-0.3-0.7-0.7-0.7c-0.9,0-3.2,2.7-4.1,3.6
		c-0.2,0.2-0.4,0.2-0.6,0l-0.4-0.5c-0.2-0.2-0.3-0.3-0.2-0.5c0.2-0.3,5.4-6.4,8.6-6.2c0.6,0,1.2,0.4,1.2,1.3c0,0.9-0.8,3.2-1.7,5.6
		l-2.9,7.7c-0.7,1.9-0.9,3-0.9,3.4c0,0.5,0.2,0.8,0.6,0.9c1.1-0.2,3.8-3.1,4.1-3.6c0.1-0.2,0.3-0.2,0.6,0.1l0.4,0.4
		c0.2,0.3,0.3,0.4,0.1,0.6c-0.3,0.4-4.4,5.3-8.6,5.3C325.1,205.6,324.8,205.2,324.8,204.4z M331.2,174.8c0-1.4,1.1-2.5,2.6-2.5
		c1.8,0,2.7,1.3,2.7,2.4c0,0.8-0.6,2.5-2.7,2.5C331.6,177.2,331.2,175.4,331.2,174.8z"/>
	<path class="st0" d="M336.8,200.7c0-4.3,2.8-9.6,6.5-13.3c1.6-1.6,4.4-3.4,6.8-3.4c2,0,2.9,1.5,2.9,2.7c0,2.5-1.9,5.1-4.7,6.6
		c-2.7,1.4-5.5,1.9-7.4,2.1c-0.3,0.6-0.7,2.3-0.7,4.7c0,2.3,1.7,3.2,2.6,3.2c2.5,0,4.7-1.9,5.8-3.6c0.1-0.2,0.3-0.3,0.5,0l0.6,0.5
		c0.3,0.2,0.3,0.3,0.1,0.5c-1.3,1.8-4.3,5.1-8.2,5.1C338.2,205.7,336.8,204,336.8,200.7z M341.3,193.9c1.8,0.2,8.4-2,8.4-5.7
		c0-1-0.5-1.9-1.6-1.9C344.9,186.3,341.7,192.1,341.3,193.9z"/>
	<path class="st0" d="M360.3,187.3h-3.6c-0.3,0-0.4-0.1-0.3-0.4l0.4-1.1c0.1-0.3,0.3-0.4,0.6-0.4h3.7l2.6-5.9
		c0.3-0.5,0.4-0.6,0.8-0.8c0.6-0.2,1.9-0.7,2.3-0.9c0.3-0.2,0.6-0.3,0.8-0.3c0.3,0,0.4,0.3,0,1l-3.4,6.8h5.2c0.3,0,0.4,0.2,0.2,0.6
		l-0.5,1.1c-0.1,0.2-0.3,0.3-0.5,0.3h-5.2l-4.9,11.4c-0.6,1.4-1.2,2.7-1.2,3.2c0,0.6,0.2,0.9,0.7,0.9c1.5,0,4.8-2.9,5.1-3.2
		c0.2-0.2,0.3-0.2,0.5,0l0.6,0.6c0.2,0.2,0.2,0.3,0.1,0.5c-0.7,0.8-5.4,5-9.3,5c-1.3,0-1.6-0.5-1.6-1.2c0-0.8,0.3-1.6,0.6-2.4
		L360.3,187.3z"/>
	<path class="st0" d="M369.4,191.3c-0.1,0-0.2-0.2-0.1-0.5c0.3-0.6,3-6.9,6.1-6.9c1.6,0,2.1,1.3,2.5,5.7c0.5,5.8,0.9,11.7,1,15
		l0.2-0.1c1.4-2.3,4.5-8.3,5.2-10.8c0.3-0.9,0.8-2.2,0.8-4.4c0-0.6-0.1-1.5-0.3-1.9c-0.2-0.5-0.6-1.2-0.6-1.8c0-0.8,0.5-1.8,2.1-1.8
		c1.4,0,2,1.3,2,2.5c0,3.3-1.9,7.6-3.4,10.8c-2.2,4.9-7.6,14-12,18.3c-1.4,1.4-4.7,4.6-7.7,4.6c-2,0-2.8-1.2-2.8-2.4
		c0-1.3,1.1-2,2-2.1c0.9,0,1.3,0.4,1.9,0.8c0.4,0.3,0.9,0.6,1.3,0.6c0.5,0,1.4-0.3,2.4-1.1c2.8-2.1,4.8-5,5.6-6.9
		c0.4-1,0.5-2.1,0.4-2.8c-0.1-1.2-1.1-15-1.6-17.6c-0.2-1-0.5-1.4-0.9-1.4c-0.9,0-2.5,3-2.9,4.1c-0.1,0.2-0.3,0.2-0.5,0.2
		L369.4,191.3z"/>
</g>
<rect x="294.7" y="215" class="st0" width="60.9" height="1.7"/>
</svg>
